<svg width="299" height="264" xmlns="http://www.w3.org/2000/svg" xmlns:xlink="http://www.w3.org/1999/xlink" xml:space="preserve" overflow="hidden"><g transform="translate(-2051 -1106)"><rect x="2173.5" y="1161.5" width="52" height="186" stroke="#000000" stroke-width="6.875" stroke-miterlimit="8" fill="#FF0000"/><path d="M2346.71 1347.9 2212.51 1114.45C2207.36 1105.18 2193.98 1105.18 2188.83 1114.45L2054.29 1347.9C2049.15 1357.17 2055.67 1368.5 2066.31 1368.5L2200.5 1368.5 2334.69 1368.5C2345.33 1368.5 2351.85 1357.17 2346.71 1347.9ZM2190.2 1169.38 2210.8 1169.38 2210.8 1289.54 2190.2 1289.54 2190.2 1169.38ZM2200.5 1337.6C2190.89 1337.6 2183.34 1330.05 2183.34 1320.44 2183.34 1310.82 2190.89 1303.27 2200.5 1303.27 2210.11 1303.27 2217.66 1310.82 2217.66 1320.44 2217.66 1330.05 2210.11 1337.6 2200.5 1337.6Z" stroke="#000000" stroke-width="3.4375" stroke-miterlimit="8" fill="#FFFF00" fill-rule="evenodd"/></g></svg>