<?xml version="1.0" encoding="UTF-8" standalone="no"?>
<svg
   width="299"
   height="264"
   xml:space="preserve"
   overflow="hidden"
   version="1.1"
   id="svg1"
   sodipodi:docname="blocktype_unknown_yellow_inkspace.svg"
   inkscape:version="1.4.2 (f4327f4, 2025-05-13)"
   xmlns:inkscape="http://www.inkscape.org/namespaces/inkscape"
   xmlns:sodipodi="http://sodipodi.sourceforge.net/DTD/sodipodi-0.dtd"
   xmlns="http://www.w3.org/2000/svg"
   xmlns:svg="http://www.w3.org/2000/svg"><defs
     id="defs1" /><sodipodi:namedview
     id="namedview1"
     pagecolor="#ffffff"
     bordercolor="#000000"
     borderopacity="0.25"
     inkscape:showpageshadow="2"
     inkscape:pageopacity="0.0"
     inkscape:pagecheckerboard="0"
     inkscape:deskcolor="#d1d1d1"
     inkscape:zoom="4.4393939"
     inkscape:cx="149.45734"
     inkscape:cy="132"
     inkscape:window-width="2560"
     inkscape:window-height="1476"
     inkscape:window-x="-12"
     inkscape:window-y="-12"
     inkscape:window-maximized="1"
     inkscape:current-layer="svg1" /><g
     transform="translate(-2051 -1106)"
     id="g1"><path
       id="rect1"
       style="fill:#ff0000;stroke:#000000;stroke-width:6.875;stroke-miterlimit:8"
       d="m 2173.5,1161.5 h 52 v 186 h -52 z" /><path
       d="M2346.71 1347.9 2212.51 1114.45C2207.36 1105.18 2193.98 1105.18 2188.83 1114.45L2054.29 1347.9C2049.15 1357.17 2055.67 1368.5 2066.31 1368.5L2200.5 1368.5 2334.69 1368.5C2345.33 1368.5 2351.85 1357.17 2346.71 1347.9ZM2190.2 1169.38 2210.8 1169.38 2210.8 1289.54 2190.2 1289.54 2190.2 1169.38ZM2200.5 1337.6C2190.89 1337.6 2183.34 1330.05 2183.34 1320.44 2183.34 1310.82 2190.89 1303.27 2200.5 1303.27 2210.11 1303.27 2217.66 1310.82 2217.66 1320.44 2217.66 1330.05 2210.11 1337.6 2200.5 1337.6Z"
       stroke="#000000"
       stroke-width="3.4375"
       stroke-miterlimit="8"
       fill="#FFFF00"
       fill-rule="evenodd"
       id="path1" /></g></svg>
