<svg width="96" height="96" xmlns="http://www.w3.org/2000/svg" xmlns:xlink="http://www.w3.org/1999/xlink" xml:space="preserve" overflow="hidden"><g transform="translate(-362 -273)"><path d="M385 287 435 287 435 355 385 355 385 287ZM379 361 441 361 441 281 379 281 379 361Z"/><path d="M412 296 429 296 429 300 412 300Z"/><path d="M412 312 429 312 429 316 412 316Z"/><path d="M412 344 429 344 429 348 412 348Z"/><path d="M412 328 429 328 429 332 412 332Z"/><path d="M405.8 293.8 403 291 396.4 297.6 393.8 295 391 297.8 396.4 303.2Z"/><path d="M405.8 309.8 403 307 396.4 313.6 393.8 311 391 313.8 396.4 319.2Z"/><path d="M405.8 325.8 403 323 396.4 329.6 393.8 327 391 329.8 396.4 335.2Z"/><path d="M405.8 341.6 403 338.8 396.4 345.4 393.8 342.8 391 345.6 396.4 351Z"/></g></svg>