<svg width="96" height="96" xmlns="http://www.w3.org/2000/svg" xmlns:xlink="http://www.w3.org/1999/xlink" xml:space="preserve" overflow="hidden"><g transform="translate(-481 -19)"><path d="M504 33 554 33 554 101 504 101 504 33ZM498 107 560 107 560 27 498 27 498 107Z"/><path d="M511 39 519 39 519 47 511 47Z"/><path d="M527 41 547 41 547 45 527 45Z"/><path d="M511 55 519 55 519 63 511 63Z"/><path d="M527 57 547 57 547 61 527 61Z"/><path d="M511 71 519 71 519 79 511 79Z"/><path d="M527 73 547 73 547 77 527 77Z"/><path d="M511 87 519 87 519 95 511 95Z"/><path d="M527 89 547 89 547 93 527 93Z"/></g></svg>