<?xml version="1.0" encoding="UTF-8" standalone="no"?>
<svg
   width="330"
   height="330"
   xml:space="preserve"
   overflow="hidden"
   version="1.1"
   id="svg9"
   sodipodi:docname="Dots.svg"
   inkscape:version="1.4.2 (f4327f4, 2025-05-13)"
   xmlns:inkscape="http://www.inkscape.org/namespaces/inkscape"
   xmlns:sodipodi="http://sodipodi.sourceforge.net/DTD/sodipodi-0.dtd"
   xmlns="http://www.w3.org/2000/svg"
   xmlns:svg="http://www.w3.org/2000/svg"><defs
     id="defs9" /><sodipodi:namedview
     id="namedview9"
     pagecolor="#ffffff"
     bordercolor="#000000"
     borderopacity="0.25"
     inkscape:showpageshadow="2"
     inkscape:pageopacity="0.0"
     inkscape:pagecheckerboard="0"
     inkscape:deskcolor="#d1d1d1"
     inkscape:zoom="3.5515152"
     inkscape:cx="164.85922"
     inkscape:cy="165"
     inkscape:window-width="2560"
     inkscape:window-height="1476"
     inkscape:window-x="-12"
     inkscape:window-y="-12"
     inkscape:window-maximized="1"
     inkscape:current-layer="svg9" /><g
     transform="translate(-1184 -1376)"
     id="g9"><path
       d="M1207.5 1438.5C1207.5 1415.3 1226.08 1396.5 1249 1396.5 1271.92 1396.5 1290.5 1415.3 1290.5 1438.5 1290.5 1461.7 1271.92 1480.5 1249 1480.5 1226.08 1480.5 1207.5 1461.7 1207.5 1438.5Z"
       stroke="#BFBFBF"
       stroke-width="6.875"
       stroke-miterlimit="8"
       fill="#D9D9D9"
       fill-rule="evenodd"
       id="path1" /><path
       d="M1307.5 1438.5C1307.5 1415.3 1326.3 1396.5 1349.5 1396.5 1372.7 1396.5 1391.5 1415.3 1391.5 1438.5 1391.5 1461.7 1372.7 1480.5 1349.5 1480.5 1326.3 1480.5 1307.5 1461.7 1307.5 1438.5Z"
       stroke="#BFBFBF"
       stroke-width="6.875"
       stroke-miterlimit="8"
       fill="#D9D9D9"
       fill-rule="evenodd"
       id="path2" /><path
       d="M1207.5 1541.5C1207.5 1518.3 1226.08 1499.5 1249 1499.5 1271.92 1499.5 1290.5 1518.3 1290.5 1541.5 1290.5 1564.7 1271.92 1583.5 1249 1583.5 1226.08 1583.5 1207.5 1564.7 1207.5 1541.5Z"
       stroke="#BFBFBF"
       stroke-width="6.875"
       stroke-miterlimit="8"
       fill="#D9D9D9"
       fill-rule="evenodd"
       id="path3" /><path
       d="M1307.5 1541.5C1307.5 1518.3 1326.3 1499.5 1349.5 1499.5 1372.7 1499.5 1391.5 1518.3 1391.5 1541.5 1391.5 1564.7 1372.7 1583.5 1349.5 1583.5 1326.3 1583.5 1307.5 1564.7 1307.5 1541.5Z"
       stroke="#BFBFBF"
       stroke-width="6.875"
       stroke-miterlimit="8"
       fill="#D9D9D9"
       fill-rule="evenodd"
       id="path4" /><path
       d="M1207.5 1644C1207.5 1621.08 1226.08 1602.5 1249 1602.5 1271.92 1602.5 1290.5 1621.08 1290.5 1644 1290.5 1666.92 1271.92 1685.5 1249 1685.5 1226.08 1685.5 1207.5 1666.92 1207.5 1644Z"
       stroke="#BFBFBF"
       stroke-width="6.875"
       stroke-miterlimit="8"
       fill="#D9D9D9"
       fill-rule="evenodd"
       id="path5" /><path
       d="M1307.5 1644C1307.5 1621.08 1326.3 1602.5 1349.5 1602.5 1372.7 1602.5 1391.5 1621.08 1391.5 1644 1391.5 1666.92 1372.7 1685.5 1349.5 1685.5 1326.3 1685.5 1307.5 1666.92 1307.5 1644Z"
       stroke="#BFBFBF"
       stroke-width="6.875"
       stroke-miterlimit="8"
       fill="#D9D9D9"
       fill-rule="evenodd"
       id="path6" /><path
       d="M1408.5 1438.5C1408.5 1415.3 1427.3 1396.5 1450.5 1396.5 1473.7 1396.5 1492.5 1415.3 1492.5 1438.5 1492.5 1461.7 1473.7 1480.5 1450.5 1480.5 1427.3 1480.5 1408.5 1461.7 1408.5 1438.5Z"
       stroke="#BFBFBF"
       stroke-width="6.875"
       stroke-miterlimit="8"
       fill="#D9D9D9"
       fill-rule="evenodd"
       id="path7" /><path
       d="M1408.5 1541.5C1408.5 1518.3 1427.3 1499.5 1450.5 1499.5 1473.7 1499.5 1492.5 1518.3 1492.5 1541.5 1492.5 1564.7 1473.7 1583.5 1450.5 1583.5 1427.3 1583.5 1408.5 1564.7 1408.5 1541.5Z"
       stroke="#BFBFBF"
       stroke-width="6.875"
       stroke-miterlimit="8"
       fill="#D9D9D9"
       fill-rule="evenodd"
       id="path8" /><path
       d="M1408.5 1644C1408.5 1621.08 1427.3 1602.5 1450.5 1602.5 1473.7 1602.5 1492.5 1621.08 1492.5 1644 1492.5 1666.92 1473.7 1685.5 1450.5 1685.5 1427.3 1685.5 1408.5 1666.92 1408.5 1644Z"
       stroke="#BFBFBF"
       stroke-width="6.875"
       stroke-miterlimit="8"
       fill="#D9D9D9"
       fill-rule="evenodd"
       id="path9" /></g></svg>
