<svg width="96" height="96" xmlns="http://www.w3.org/2000/svg" xmlns:xlink="http://www.w3.org/1999/xlink" xml:space="preserve" overflow="hidden"><g transform="translate(-87 -19)"><path d="M139.193 104.025C134.05 106.085 132.966 104.57 131.467 102.476 130.332 100.889 128.919 98.915 125.656 98.616 122.478 98.316 119.75 99.897 117.107 101.416 113.131 103.705 109.376 105.869 103.592 103.138 103.092 102.902 102.496 103.116 102.26 103.616 102.025 104.115 102.239 104.711 102.738 104.947 109.466 108.122 114.055 105.48 118.105 103.147 120.587 101.719 122.934 100.37 125.474 100.602 127.825 100.818 128.759 102.123 129.841 103.634 130.988 105.234 132.241 106.99 135.158 106.99 136.807 106.923 138.428 106.545 139.937 105.878 140.45 105.673 140.699 105.09 140.494 104.577 140.289 104.064 139.706 103.814 139.193 104.02Z"/><path d="M167.024 31.366C165.059 28.318 161.22 26.64 156.215 26.64 155.105 26.6436 153.996 26.7177 152.896 26.862 150.559 27.1621 148.391 28.2412 146.743 29.925 146.096 29.123 145.003 28.8332 144.043 29.209 139.481 31.0261 135.169 33.417 131.211 36.324 126.712 39.566 122.584 43.293 118.9 47.438 117.05 49.5527 115.779 52.1104 115.21 54.862 114.312 54.6488 113.385 55.0777 112.966 55.9 110.666 60.288 108.102 67.285 107.688 72.128 107.322 76.428 108.926 80.108 111.775 81.517L112.204 81.728C110.504 84.388 104.532 94.096 102.346 102.282 104.025 100.168 105.84 98.1665 107.779 96.289 107.779 96.289 108.795 91.714 114.944 83.054 115.889 83.4576 116.906 83.6642 117.934 83.661 119.488 83.6042 121.028 83.3372 122.511 82.867 130.005 80.786 135.182 73.68 135.399 73.378 135.935 72.632 135.893 71.6171 135.299 70.917 137.687 69.863 139.801 68.2765 141.481 66.279 143.391 63.9993 145.484 61.8795 147.74 59.941 149.683 58.272 151.96 56.62 154.37 54.87 155.576 53.994 156.823 53.089 158.027 52.179 158.779 51.6116 159.124 50.6535 158.907 49.737 158.872 49.5941 158.825 49.4545 158.766 49.32 159.105 49.2567 159.442 49.1847 159.779 49.104 161.903 48.5819 163.813 47.4127 165.244 45.758 169.447 40.894 170.045 36.051 167.024 31.366ZM163.732 44.452C162.577 45.7932 161.031 46.7403 159.312 47.161 157.982 47.482 156.618 47.6445 155.25 47.645 153.562 47.6459 151.884 47.3945 150.271 46.899 150.254 46.8934 150.235 46.8907 150.217 46.891 150.145 46.8909 150.079 46.9321 150.047 46.997 150.033 47.0282 150.026 47.0627 150.029 47.097 150.036 47.1514 150.066 47.2003 150.111 47.231 152.08 48.5693 154.307 49.4802 156.65 49.905 156.857 49.9378 156.999 50.1324 156.966 50.3397 156.951 50.4354 156.9 50.5217 156.823 50.581 153.293 53.248 149.462 55.825 146.438 58.421 144.101 60.4289 141.932 62.6249 139.954 64.987 137.171 68.32 133.064 70.2625 128.722 70.3 128.029 70.3004 127.337 70.2486 126.651 70.145L126.524 70.126C126.514 70.125 126.505 70.125 126.495 70.126 126.391 70.1256 126.307 70.2095 126.306 70.3134 126.306 70.3855 126.347 70.4514 126.412 70.483 128.706 71.6025 131.222 72.193 133.775 72.211 133.775 72.211 128.875 79.023 121.975 80.939 120.665 81.3562 119.306 81.599 117.933 81.661 117.056 81.6722 116.189 81.473 115.405 81.08L113.373 80.08C118.429 71.0437 124.574 62.6612 131.67 55.12 135.073 51.7131 138.773 48.6162 142.726 45.866 142.802 45.8105 142.829 45.7092 142.791 45.623 142.749 45.5386 142.653 45.4963 142.563 45.523 141.792 45.7364 141.056 46.0622 140.379 46.49 135.572 49.5405 131.137 53.1404 127.163 57.217 122.178 62.21 115.263 72.37 111.5 78.83 110.02 76.9968 109.362 74.6343 109.681 72.3 110.063 67.834 112.507 61.078 114.748 56.811L114.748 56.811C115.213 58.9211 116.076 60.9234 117.29 62.711 117.325 62.7625 117.384 62.7932 117.446 62.793 117.474 62.7927 117.502 62.7866 117.527 62.775 117.611 62.7347 117.653 62.6394 117.627 62.55 117.269 61.386 117.039 60.1867 116.939 58.973 116.671 55.2381 117.92 51.5529 120.404 48.751 123.988 44.7188 128.006 41.0939 132.384 37.942 136.205 35.1368 140.367 32.8286 144.77 31.073 144.813 31.0559 144.859 31.0471 144.905 31.047 145.115 31.0523 145.281 31.2272 145.276 31.4375 145.275 31.464 145.272 31.4903 145.266 31.516 144.852 33.3596 144.748 35.2593 144.959 37.137 144.98 37.322 145.004 37.51 145.031 37.695 145.044 37.787 145.123 37.8555 145.216 37.856L145.216 37.856C145.307 37.855 145.384 37.7895 145.4 37.7 145.59 36.4723 145.915 35.2693 146.369 34.113 147.505 31.2568 150.1 29.2415 153.149 28.849 154.165 28.715 155.188 28.6461 156.212 28.643 160.478 28.643 163.732 29.958 165.34 32.452 168.2 36.875 166.885 40.8 163.732 44.452Z"/></g></svg>