<svg width="96" height="96" xmlns="http://www.w3.org/2000/svg" xmlns:xlink="http://www.w3.org/1999/xlink" xml:space="preserve" overflow="hidden"><g transform="translate(-768 -171)"><path d="M820 235 787.5 235 798.414 208.617C798.567 208.243 798.932 207.999 799.337 208L847.061 208C847.613 208.001 848.061 208.449 848.06 209.001 848.06 209.134 848.033 209.267 847.981 209.39L844.081 218.61 845.923 219.39 849.823 210.169C850.469 208.643 849.755 206.883 848.229 206.237 847.859 206.081 847.462 206 847.061 206L799.337 206C798.122 205.997 797.026 206.729 796.565 207.853L784.5 237 820 237Z"/><path d="M846.552 224.448C841.295 219.166 832.752 219.146 827.47 224.402 822.445 229.404 822.147 237.441 826.789 242.8L825.115 244.474C823.759 243.741 822.082 243.981 820.987 245.066L814.025 252.028C812.658 253.395 812.658 255.611 814.025 256.978 815.392 258.345 817.608 258.345 818.975 256.978L825.938 250.016C827.023 248.92 827.263 247.244 826.529 245.888L828.2 244.211C833.833 249.09 842.354 248.479 847.233 242.846 851.875 237.487 851.577 229.449 846.552 224.448ZM828.874 225.862C832.192 222.552 837.186 221.584 841.5 223.415L836.351 235 825.56 235C825.257 231.614 826.471 228.267 828.874 225.862ZM824.523 248.6 817.561 255.562C816.975 256.148 816.025 256.148 815.439 255.562 814.853 254.976 814.853 254.026 815.439 253.44L822.4 246.477C822.986 245.891 823.937 245.891 824.523 246.477 825.109 247.063 825.109 248.014 824.523 248.6ZM845.138 242.127C840.662 246.618 833.394 246.63 828.903 242.155 827.472 240.729 826.443 238.951 825.919 237L837.649 237 843.271 224.353C848.596 227.804 850.114 234.918 846.663 240.243 846.223 240.923 845.711 241.554 845.138 242.126Z"/><path d="M802.418 190C802.608 190 802.794 190.054 802.954 190.156L812.972 196.531C813.453 196.838 814.012 197.001 814.582 197L840 197C840.552 197 841 197.448 841 198L841 204 843 204 843 198C843 196.343 841.657 195 840 195L814.582 195C814.392 195 814.206 194.946 814.046 194.844L804.028 188.469C803.547 188.162 802.988 187.999 802.418 188L785 188C783.343 188 782 189.343 782 191L782 237 784 237 784 191C784 190.448 784.448 190 785 190Z"/></g></svg>