<?xml version="1.0" encoding="UTF-8" standalone="no"?>
<svg
   width="219"
   height="322"
   xml:space="preserve"
   overflow="hidden"
   version="1.1"
   id="svg1"
   sodipodi:docname="fire.svg"
   inkscape:version="1.4.2 (f4327f4, 2025-05-13)"
   xmlns:inkscape="http://www.inkscape.org/namespaces/inkscape"
   xmlns:sodipodi="http://sodipodi.sourceforge.net/DTD/sodipodi-0.dtd"
   xmlns="http://www.w3.org/2000/svg"
   xmlns:svg="http://www.w3.org/2000/svg"><defs
     id="defs1" /><sodipodi:namedview
     id="namedview1"
     pagecolor="#ffffff"
     bordercolor="#000000"
     borderopacity="0.25"
     inkscape:showpageshadow="2"
     inkscape:pageopacity="0.0"
     inkscape:pagecheckerboard="0"
     inkscape:deskcolor="#d1d1d1"
     inkscape:zoom="3.6397516"
     inkscape:cx="109.48549"
     inkscape:cy="161"
     inkscape:window-width="2560"
     inkscape:window-height="1476"
     inkscape:window-x="-12"
     inkscape:window-y="-12"
     inkscape:window-maximized="1"
     inkscape:current-layer="svg1" /><g
     transform="translate(-917 -879)"
     id="g1"><path
       d="M971.924 1003.33C947.201 1023.94 933.809 1042.83 929.688 1052.79 906.682 1108.42 940.333 1162.34 964.713 1175.74L973.641 1180.55 969.52 1171.27C960.592 1151.01 950.978 1112.55 981.538 1074.42 979.822 1090.57 979.822 1118.73 998.021 1140.71 1022.06 1170.24 1022.4 1192.22 1022.4 1192.57L1022.4 1196 1025.83 1196C1067.73 1196 1105.84 1170.59 1121.64 1131.78 1133.66 1108.42 1135.72 1070.65 1118.2 1047.29L1108.25 1033.9 1112.37 1050.04C1114.77 1061.37 1110.99 1072.71 1102.06 1080.26 1093.82 1087.82 1082.15 1089.88 1071.85 1085.41 1062.92 1082.32 1056.05 1075.45 1053.3 1066.87 1050.21 1056.57 1052.27 1045.58 1058.8 1037.33 1073.56 1017.07 1078.03 990.626 1071.16 964.182 1062.92 932.929 1040.6 906.828 1010.73 893.778L1001.8 890 1006.26 898.586C1032.36 947.697 986.346 991.313 971.924 1003.33ZM1019.65 906.142C1041.63 919.535 1057.77 940.828 1064.29 965.899 1070.82 990.283 1066.7 1014.67 1052.62 1033.21 1045.06 1043.52 1042.66 1056.57 1046.44 1068.93 1049.87 1079.58 1058.46 1088.16 1069.1 1091.94 1081.81 1097.09 1096.23 1094.69 1106.19 1085.41 1113.05 1079.58 1117.52 1071.68 1118.89 1063.09 1127.13 1083.7 1124.04 1111.17 1115.11 1128.69 1100.69 1164.06 1067.04 1187.76 1028.92 1189.13 1027.89 1181.23 1023.77 1161.31 1003.17 1136.59 979.478 1107.74 989.779 1065.84 990.123 1064.12L993.213 1051.76 984.285 1061.03C946.857 1099.84 951.665 1140.71 958.875 1163.72 938.273 1145.17 916.983 1101.21 935.526 1055.88 939.646 1045.92 953.725 1027.37 975.701 1009.17 1005.92 984.101 1030.98 944.606 1015.88 904.768 1016.56 904.081 1018.62 905.455 1019.65 906.142Z"
       stroke="#FF0000"
       stroke-width="10.3125"
       stroke-miterlimit="8"
       fill="none"
       fill-rule="evenodd"
       id="path1" /></g></svg>
