<svg width="330" height="330" xmlns="http://www.w3.org/2000/svg" xmlns:xlink="http://www.w3.org/1999/xlink" xml:space="preserve" overflow="hidden"><g transform="translate(-2056 -823)"><rect x="2107.5" y="875.5" width="228" height="228" stroke="#CC0000" stroke-width="1.14583" stroke-miterlimit="8" fill="#FFCC99"/><path d="M2326 874.5C2326 869.805 2329.81 866 2334.5 866 2339.19 866 2343 869.805 2343 874.5 2343 879.194 2339.19 883 2334.5 883 2329.81 883 2326 879.194 2326 874.5Z" fill="#CC0000" fill-rule="evenodd"/><path d="M2098 874.5C2098 869.805 2101.81 866 2106.5 866 2111.19 866 2115 869.805 2115 874.5 2115 879.194 2111.19 883 2106.5 883 2101.81 883 2098 879.194 2098 874.5Z" fill="#CC0000" fill-rule="evenodd"/><path d="M2098 1101.5C2098 1096.81 2101.81 1093 2106.5 1093 2111.19 1093 2115 1096.81 2115 1101.5 2115 1106.19 2111.19 1110 2106.5 1110 2101.81 1110 2098 1106.19 2098 1101.5Z" fill="#CC0000" fill-rule="evenodd"/><path d="M2326 1101.5C2326 1096.81 2329.81 1093 2334.5 1093 2339.19 1093 2343 1096.81 2343 1101.5 2343 1106.19 2339.19 1110 2334.5 1110 2329.81 1110 2326 1106.19 2326 1101.5Z" fill="#CC0000" fill-rule="evenodd"/></g></svg>