<svg width="330" height="330" xmlns="http://www.w3.org/2000/svg" xmlns:xlink="http://www.w3.org/1999/xlink" xml:space="preserve" overflow="hidden"><g transform="translate(-1666 -823)"><rect x="1717.5" y="875.5" width="228" height="228" stroke="#A6A6A6" stroke-width="1.14583" stroke-miterlimit="8" fill="#F2F2F2"/><path d="M1937 874.5C1937 869.805 1940.58 866 1945 866 1949.42 866 1953 869.805 1953 874.5 1953 879.194 1949.42 883 1945 883 1940.58 883 1937 879.194 1937 874.5Z" fill="#BFBFBF" fill-rule="evenodd"/><path d="M1709 874.5C1709 869.805 1712.58 866 1717 866 1721.42 866 1725 869.805 1725 874.5 1725 879.194 1721.42 883 1717 883 1712.58 883 1709 879.194 1709 874.5Z" fill="#BFBFBF" fill-rule="evenodd"/><path d="M1709 1101.5C1709 1096.81 1712.58 1093 1717 1093 1721.42 1093 1725 1096.81 1725 1101.5 1725 1106.19 1721.42 1110 1717 1110 1712.58 1110 1709 1106.19 1709 1101.5Z" fill="#BFBFBF" fill-rule="evenodd"/><path d="M1937 1101.5C1937 1096.81 1940.58 1093 1945 1093 1949.42 1093 1953 1096.81 1953 1101.5 1953 1106.19 1949.42 1110 1945 1110 1940.58 1110 1937 1106.19 1937 1101.5Z" fill="#BFBFBF" fill-rule="evenodd"/></g></svg>